REM DIRINDEX 1\2,1\3,1\4,1\5\6,1\5\7,1\8
REM DIRNAME cjc115,folder01,folder02,folder03,folder04,folder05,folder06,folder07
TITLE ""
FILE "057 Åy057ÅzUnit3 (DATA FILE_í∑ï∂ñ‚ëËÇ…èoåªÇ∑ÇÈêÍñÂópåÍ3).mp3" MP3
  TRACK 01 AUDIO
    TITLE "0:"
    INDEX 01 00:00:00
  TRACK 02 AUDIO
    TITLE "8:cjc115_2176"
    INDEX 01 00:00:07
  TRACK 03 AUDIO
    TITLE "0:"
    INDEX 01 00:01:38
  TRACK 04 AUDIO
    TITLE "6:cjc115_2177"
    INDEX 01 00:02:10
  TRACK 05 AUDIO
    TITLE "0:"
    INDEX 01 00:03:31
  TRACK 06 AUDIO
    TITLE "7:cjc115_2178"
    INDEX 01 00:03:39
  TRACK 07 AUDIO
    TITLE "0:"
    INDEX 01 00:04:70
  TRACK 08 AUDIO
    TITLE "6:cjc115_2179"
    INDEX 01 00:06:02
  TRACK 09 AUDIO
    TITLE "0:"
    INDEX 01 00:07:23
  TRACK 10 AUDIO
    TITLE "7:cjc115_2180"
    INDEX 01 00:07:31
  TRACK 11 AUDIO
    TITLE "0:"
    INDEX 01 00:08:42
  TRACK 12 AUDIO
    TITLE "6:cjc115_2181"
    INDEX 01 00:09:51
  TRACK 13 AUDIO
    TITLE "0:"
    INDEX 01 00:10:68
  TRACK 14 AUDIO
    TITLE "7:cjc115_2182"
    INDEX 01 00:10:70
  TRACK 15 AUDIO
    TITLE "0:"
    INDEX 01 00:12:07
  TRACK 16 AUDIO
    TITLE "6:cjc115_2183"
    INDEX 01 00:13:16
  TRACK 17 AUDIO
    TITLE "0:"
    INDEX 01 00:14:23
  TRACK 18 AUDIO
    TITLE "7:cjc115_2184"
    INDEX 01 00:14:31
  TRACK 19 AUDIO
    TITLE "0:"
    INDEX 01 00:15:34
  TRACK 20 AUDIO
    TITLE "6:cjc115_2185"
    INDEX 01 00:16:44
  TRACK 21 AUDIO
    TITLE "0:"
    INDEX 01 00:17:59
  TRACK 22 AUDIO
    TITLE "7:cjc115_2186"
    INDEX 01 00:17:69
  TRACK 23 AUDIO
    TITLE "0:"
    INDEX 01 00:20:02
  TRACK 24 AUDIO
    TITLE "6:cjc115_2187"
    INDEX 01 00:21:11
  TRACK 25 AUDIO
    TITLE "0:"
    INDEX 01 00:22:25
  TRACK 26 AUDIO
    TITLE "7:cjc115_2188"
    INDEX 01 00:22:34
  TRACK 27 AUDIO
    TITLE "0:"
    INDEX 01 00:23:36
  TRACK 28 AUDIO
    TITLE "6:cjc115_2189"
    INDEX 01 00:24:43
  TRACK 29 AUDIO
    TITLE "0:"
    INDEX 01 00:26:28
  TRACK 30 AUDIO
    TITLE "7:cjc115_2190"
    INDEX 01 00:26:36
  TRACK 31 AUDIO
    TITLE "0:"
    INDEX 01 00:27:53
  TRACK 32 AUDIO
    TITLE "6:cjc115_2191"
    INDEX 01 00:28:60
  TRACK 33 AUDIO
    TITLE "0:"
    INDEX 01 00:30:01
  TRACK 34 AUDIO
    TITLE "7:cjc115_2192"
    INDEX 01 00:30:05
  TRACK 35 AUDIO
    TITLE "0:"
    INDEX 01 00:31:43
  TRACK 36 AUDIO
    TITLE "6:cjc115_2193"
    INDEX 01 00:32:50
  TRACK 37 AUDIO
    TITLE "0:"
    INDEX 01 00:34:42
  TRACK 38 AUDIO
    TITLE "7:cjc115_2194"
    INDEX 01 00:34:51
  TRACK 39 AUDIO
    TITLE "0:"
    INDEX 01 00:36:21
  TRACK 40 AUDIO
    TITLE "6:cjc115_2195"
    INDEX 01 00:37:28
  TRACK 41 AUDIO
    TITLE "0:"
    INDEX 01 00:39:03
  TRACK 42 AUDIO
    TITLE "7:cjc115_2196"
    INDEX 01 00:39:11
  TRACK 43 AUDIO
    TITLE "0:"
    INDEX 01 00:40:54
  TRACK 44 AUDIO
    TITLE "6:cjc115_2197"
    INDEX 01 00:41:63
  TRACK 45 AUDIO
    TITLE "0:"
    INDEX 01 00:43:05
  TRACK 46 AUDIO
    TITLE "7:cjc115_2198"
    INDEX 01 00:43:11
  TRACK 47 AUDIO
    TITLE "0:"
    INDEX 01 00:45:24
  TRACK 48 AUDIO
    TITLE "6:cjc115_2199"
    INDEX 01 00:46:33
  TRACK 49 AUDIO
    TITLE "0:"
    INDEX 01 00:47:44
  TRACK 50 AUDIO
    TITLE "7:cjc115_2200"
    INDEX 01 00:47:54
  TRACK 51 AUDIO
    TITLE "0:"
    INDEX 01 00:49:02
  TRACK 52 AUDIO
    TITLE "6:cjc115_2201"
    INDEX 01 00:50:09
  TRACK 53 AUDIO
    TITLE "0:"
    INDEX 01 00:51:26
  TRACK 54 AUDIO
    TITLE "7:cjc115_2202"
    INDEX 01 00:51:30
  TRACK 55 AUDIO
    TITLE "0:"
    INDEX 01 00:53:47
  TRACK 56 AUDIO
    TITLE "6:cjc115_2203"
    INDEX 01 00:54:54
  TRACK 57 AUDIO
    TITLE "0:"
    INDEX 01 00:55:71
  TRACK 58 AUDIO
    TITLE "7:cjc115_2204"
    INDEX 01 00:56:04
  TRACK 59 AUDIO
    TITLE "0:"
    INDEX 01 00:57:15
  TRACK 60 AUDIO
    TITLE "6:cjc115_2205"
    INDEX 01 00:58:20
  TRACK 61 AUDIO
    TITLE "0:"
    INDEX 01 00:59:43
  TRACK 62 AUDIO
    TITLE "7:cjc115_2206"
    INDEX 01 00:59:51
  TRACK 63 AUDIO
    TITLE "0:"
    INDEX 01 01:01:03
  TRACK 64 AUDIO
    TITLE "6:cjc115_2207"
    INDEX 01 01:02:10
  TRACK 65 AUDIO
    TITLE "0:"
    INDEX 01 01:03:37
  TRACK 66 AUDIO
    TITLE "7:cjc115_2208"
    INDEX 01 01:03:45
  TRACK 67 AUDIO
    TITLE "0:"
    INDEX 01 01:05:13
  TRACK 68 AUDIO
    TITLE "6:cjc115_2209"
    INDEX 01 01:06:22
  TRACK 69 AUDIO
    TITLE "0:"
    INDEX 01 01:07:45
  TRACK 70 AUDIO
    TITLE "7:cjc115_2210"
    INDEX 01 01:07:53
  TRACK 71 AUDIO
    TITLE "0:"
    INDEX 01 01:09:69
  TRACK 72 AUDIO
    TITLE "6:cjc115_2211"
    INDEX 01 01:11:02
  TRACK 73 AUDIO
    TITLE "0:"
    INDEX 01 01:12:11
  TRACK 74 AUDIO
    TITLE "7:cjc115_2212"
    INDEX 01 01:12:19
  TRACK 75 AUDIO
    TITLE "0:"
    INDEX 01 01:13:16
  TRACK 76 AUDIO
    TITLE "6:cjc115_2213"
    INDEX 01 01:14:23
  TRACK 77 AUDIO
    TITLE "0:"
    INDEX 01 01:15:39
  TRACK 78 AUDIO
    TITLE "7:cjc115_2214"
    INDEX 01 01:15:42
  TRACK 79 AUDIO
    TITLE "0:"
    INDEX 01 01:17:53
  TRACK 80 AUDIO
    TITLE "6:cjc115_2215"
    INDEX 01 01:18:60
  TRACK 81 AUDIO
    TITLE "0:"
    INDEX 01 01:20:28
  TRACK 82 AUDIO
    TITLE "7:cjc115_2216"
    INDEX 01 01:20:36
  TRACK 83 AUDIO
    TITLE "0:"
    INDEX 01 01:22:52
  TRACK 84 AUDIO
    TITLE "6:cjc115_2217"
    INDEX 01 01:23:62
  TRACK 85 AUDIO
    TITLE "0:"
    INDEX 01 01:25:35
  TRACK 86 AUDIO
    TITLE "7:cjc115_2218"
    INDEX 01 01:25:39
  TRACK 87 AUDIO
    TITLE "0:"
    INDEX 01 01:26:68
  TRACK 88 AUDIO
    TITLE "6:cjc115_2219"
    INDEX 01 01:28:00
  TRACK 89 AUDIO
    TITLE "0:"
    INDEX 01 01:29:56
  TRACK 90 AUDIO
    TITLE "7:cjc115_2220"
    INDEX 01 01:29:66
  TRACK 91 AUDIO
    TITLE "0:"
    INDEX 01 01:31:28
  TRACK 92 AUDIO
    TITLE "6:cjc115_2221"
    INDEX 01 01:32:35
  TRACK 93 AUDIO
    TITLE "0:"
    INDEX 01 01:33:54
  TRACK 94 AUDIO
    TITLE "7:cjc115_2222"
    INDEX 01 01:33:68
  TRACK 95 AUDIO
    TITLE "0:"
    INDEX 01 01:38:24
  TRACK 96 AUDIO
    TITLE "6:cjc115_2223"
    INDEX 01 01:39:33
  TRACK 97 AUDIO
    TITLE "0:"
    INDEX 01 01:41:05
  TRACK 98 AUDIO
    TITLE "7:cjc115_2224"
    INDEX 01 01:41:18
  TRACK 99 AUDIO
    TITLE "0:"
    INDEX 01 01:42:55
  TRACK 100 AUDIO
    TITLE "6:cjc115_2225"
    INDEX 01 01:43:64
  TRACK 101 AUDIO
    TITLE "0:"
    INDEX 01 01:45:20
  TRACK 102 AUDIO
    TITLE "7:cjc115_2226"
    INDEX 01 01:45:30
  TRACK 103 AUDIO
    TITLE "0:"
    INDEX 01 01:47:23
  TRACK 104 AUDIO
    TITLE "6:cjc115_2227"
    INDEX 01 01:48:28
  TRACK 105 AUDIO
    TITLE "0:"
    INDEX 01 01:49:59
  TRACK 106 AUDIO
    TITLE "7:cjc115_2228"
    INDEX 01 01:49:67
  TRACK 107 AUDIO
    TITLE "0:"
    INDEX 01 01:51:21
  TRACK 108 AUDIO
    TITLE "6:cjc115_2229"
    INDEX 01 01:52:30
  TRACK 109 AUDIO
    TITLE "0:"
    INDEX 01 01:53:45
  TRACK 110 AUDIO
    TITLE "7:cjc115_2230"
    INDEX 01 01:53:51
  TRACK 111 AUDIO
    TITLE "0:"
    INDEX 01 01:55:22
  TRACK 112 AUDIO
    TITLE "6:cjc115_2231"
    INDEX 01 01:56:30
  TRACK 113 AUDIO
    TITLE "0:"
    INDEX 01 01:58:38
  TRACK 114 AUDIO
    TITLE "7:cjc115_2232"
    INDEX 01 01:58:46
  TRACK 115 AUDIO
    TITLE "0:"
    INDEX 01 01:59:69
  TRACK 116 AUDIO
    TITLE "6:cjc115_2233"
    INDEX 01 02:01:03
  TRACK 117 AUDIO
    TITLE "0:"
    INDEX 01 02:02:20
  TRACK 118 AUDIO
    TITLE "7:cjc115_2234"
    INDEX 01 02:02:28
  TRACK 119 AUDIO
    TITLE "0:"
    INDEX 01 02:03:51
  TRACK 120 AUDIO
    TITLE "6:cjc115_2235"
    INDEX 01 02:04:59
  TRACK 121 AUDIO
    TITLE "0:"
    INDEX 01 02:06:28
  TRACK 122 AUDIO
    TITLE "7:cjc115_2236"
    INDEX 01 02:06:36
  TRACK 123 AUDIO
    TITLE "0:"
    INDEX 01 02:08:66
  TRACK 124 AUDIO
    TITLE "6:cjc115_2237"
    INDEX 01 02:10:02
  TRACK 125 AUDIO
    TITLE "0:"
    INDEX 01 02:11:70
  TRACK 126 AUDIO
    TITLE "7:cjc115_2238"
    INDEX 01 02:12:03
  TRACK 127 AUDIO
    TITLE "0:"
    INDEX 01 02:13:40
  TRACK 128 AUDIO
    TITLE "6:cjc115_2239"
    INDEX 01 02:14:49
  TRACK 129 AUDIO
    TITLE "0:"
    INDEX 01 02:15:64
  TRACK 130 AUDIO
    TITLE "7:cjc115_2240"
    INDEX 01 02:15:74
  TRACK 131 AUDIO
    TITLE "0:"
    INDEX 01 02:17:67
  TRACK 132 AUDIO
    TITLE "6:cjc115_2241"
    INDEX 01 02:19:01
  TRACK 133 AUDIO
    TITLE "0:"
    INDEX 01 02:20:38
  TRACK 134 AUDIO
    TITLE "7:cjc115_2242"
    INDEX 01 02:20:46
  TRACK 135 AUDIO
    TITLE "0:"
    INDEX 01 02:23:32
  TRACK 136 AUDIO
    TITLE "6:cjc115_2243"
    INDEX 01 02:24:42
  TRACK 137 AUDIO
    TITLE "0:"
    INDEX 01 02:26:70
  TRACK 138 AUDIO
    TITLE "7:cjc115_2244"
    INDEX 01 02:27:05
  TRACK 139 AUDIO
    TITLE "0:"
    INDEX 01 02:29:06
  TRACK 140 AUDIO
    TITLE "6:cjc115_2245"
    INDEX 01 02:30:11
  TRACK 141 AUDIO
    TITLE "0:"
    INDEX 01 02:31:67
  TRACK 142 AUDIO
    TITLE "7:cjc115_2246"
    INDEX 01 02:32:00
  TRACK 143 AUDIO
    TITLE "0:"
    INDEX 01 02:33:05
  TRACK 144 AUDIO
    TITLE "6:cjc115_2247"
    INDEX 01 02:34:15
  TRACK 145 AUDIO
    TITLE "0:"
    INDEX 01 02:35:69
  TRACK 146 AUDIO
    TITLE "7:cjc115_2248"
    INDEX 01 02:36:04
  TRACK 147 AUDIO
    TITLE "0:"
    INDEX 01 02:37:44
  TRACK 148 AUDIO
    TITLE "6:cjc115_2249"
    INDEX 01 02:38:54
  TRACK 149 AUDIO
    TITLE "0:"
    INDEX 01 02:40:13
  TRACK 150 AUDIO
    TITLE "7:cjc115_2250"
    INDEX 01 02:40:23
  TRACK 151 AUDIO
    TITLE "0:"
    INDEX 01 02:41:34
  TRACK 152 AUDIO
    TITLE "6:cjc115_2251"
    INDEX 01 02:42:42
  TRACK 153 AUDIO
    TITLE "0:"
    INDEX 01 02:44:42
  TRACK 154 AUDIO
    TITLE "7:cjc115_2252"
    INDEX 01 02:44:48
  TRACK 155 AUDIO
    TITLE "0:"
    INDEX 01 02:46:22
  TRACK 156 AUDIO
    TITLE "6:cjc115_2253"
    INDEX 01 02:47:29
  TRACK 157 AUDIO
    TITLE "0:"
    INDEX 01 02:49:08
  TRACK 158 AUDIO
    TITLE "7:cjc115_2254"
    INDEX 01 02:49:16
  TRACK 159 AUDIO
    TITLE "0:"
    INDEX 01 02:50:65
  TRACK 160 AUDIO
    TITLE "6:cjc115_2255"
    INDEX 01 02:51:74
  TRACK 161 AUDIO
    TITLE "0:"
    INDEX 01 02:53:35
  TRACK 162 AUDIO
    TITLE "7:cjc115_2256"
    INDEX 01 02:53:43
  TRACK 163 AUDIO
    TITLE "0:"
    INDEX 01 02:56:28
  TRACK 164 AUDIO
    TITLE "6:cjc115_2257"
    INDEX 01 02:57:37
  TRACK 165 AUDIO
    TITLE "0:"
    INDEX 01 02:58:56
  TRACK 166 AUDIO
    TITLE "7:cjc115_2258"
    INDEX 01 02:58:66
  TRACK 167 AUDIO
    TITLE "0:"
    INDEX 01 03:02:01
  TRACK 168 AUDIO
    TITLE "6:cjc115_2259"
    INDEX 01 03:03:08
  TRACK 169 AUDIO
    TITLE "0:"
    INDEX 01 03:04:37
  TRACK 170 AUDIO
    TITLE "7:cjc115_2260"
    INDEX 01 03:04:47
  TRACK 171 AUDIO
    TITLE "0:"
    INDEX 01 03:06:03
  TRACK 172 AUDIO
    TITLE "6:cjc115_2261"
    INDEX 01 03:07:10
  TRACK 173 AUDIO
    TITLE "0:"
    INDEX 01 03:08:31
  TRACK 174 AUDIO
    TITLE "7:cjc115_2262"
    INDEX 01 03:08:41
  TRACK 175 AUDIO
    TITLE "0:"
    INDEX 01 03:11:20
  TRACK 176 AUDIO
    TITLE "6:cjc115_2263"
    INDEX 01 03:12:29
  TRACK 177 AUDIO
    TITLE "0:"
    INDEX 01 03:14:10
  TRACK 178 AUDIO
    TITLE "7:cjc115_2264"
    INDEX 01 03:14:18
  TRACK 179 AUDIO
    TITLE "0:"
    INDEX 01 03:17:34
  TRACK 180 AUDIO
    TITLE "6:cjc115_2265"
    INDEX 01 03:18:39
  TRACK 181 AUDIO
    TITLE "0:"
    INDEX 01 03:19:66
  TRACK 182 AUDIO
    TITLE "7:cjc115_2266"
    INDEX 01 03:19:74
  TRACK 183 AUDIO
    TITLE "0:"
    INDEX 01 03:21:34
  TRACK 184 AUDIO
    TITLE "6:cjc115_2267"
    INDEX 01 03:22:43
  TRACK 185 AUDIO
    TITLE "0:"
    INDEX 01 03:24:18
  TRACK 186 AUDIO
    TITLE "7:cjc115_2268"
    INDEX 01 03:24:28
  TRACK 187 AUDIO
    TITLE "0:"
    INDEX 01 03:27:09
  TRACK 188 AUDIO
    TITLE "6:cjc115_2269"
    INDEX 01 03:28:18
  TRACK 189 AUDIO
    TITLE "0:"
    INDEX 01 03:29:55
  TRACK 190 AUDIO
    TITLE "7:cjc115_2270"
    INDEX 01 03:29:65
  TRACK 191 AUDIO
    TITLE "0:"
    INDEX 01 03:31:54
  TRACK 192 AUDIO
    TITLE "6:cjc115_2271"
    INDEX 01 03:32:63
  TRACK 193 AUDIO
    TITLE "0:"
    INDEX 01 03:34:44
  TRACK 194 AUDIO
    TITLE "7:cjc115_2272"
    INDEX 01 03:34:54
  TRACK 195 AUDIO
    TITLE "0:"
    INDEX 01 03:36:08
  TRACK 196 AUDIO
    TITLE "6:cjc115_2273"
    INDEX 01 03:37:17
  TRACK 197 AUDIO
    TITLE "0:"
    INDEX 01 03:38:48
  TRACK 198 AUDIO
    TITLE "7:cjc115_2274"
    INDEX 01 03:38:56
  TRACK 199 AUDIO
    TITLE "0:"
    INDEX 01 03:39:71
  TRACK 200 AUDIO
    TITLE "6:cjc115_2275"
    INDEX 01 03:41:03
  TRACK 201 AUDIO
    TITLE "0:"
    INDEX 01 03:42:48
  TRACK 202 AUDIO
    TITLE "7:cjc115_2276"
    INDEX 01 03:42:54
  TRACK 203 AUDIO
    TITLE "0:"
    INDEX 01 03:44:05
  TRACK 204 AUDIO
    TITLE "6:cjc115_2277"
    INDEX 01 03:45:15
  TRACK 205 AUDIO
    TITLE "0:"
    INDEX 01 03:47:04
  TRACK 206 AUDIO
    TITLE "7:cjc115_2278"
    INDEX 01 03:47:14
  TRACK 207 AUDIO
    TITLE "0:"
    INDEX 01 03:49:56
  TRACK 208 AUDIO
    TITLE "6:cjc115_2279"
    INDEX 01 03:50:67
  TRACK 209 AUDIO
    TITLE "0:"
    INDEX 01 03:52:32
  TRACK 210 AUDIO
    TITLE "7:cjc115_2280"
    INDEX 01 03:52:40
  TRACK 211 AUDIO
    TITLE "0:"
    INDEX 01 03:54:27
  TRACK 212 AUDIO
    TITLE "6:cjc115_2281"
    INDEX 01 03:55:39
  TRACK 213 AUDIO
    TITLE "0:"
    INDEX 01 03:57:24
  TRACK 214 AUDIO
    TITLE "7:cjc115_2282"
    INDEX 01 03:57:30
  TRACK 215 AUDIO
    TITLE "0:"
    INDEX 01 03:58:64
  TRACK 216 AUDIO
    TITLE "6:cjc115_2283"
    INDEX 01 03:59:66
  TRACK 217 AUDIO
    TITLE "0:"
    INDEX 01 04:01:31
  TRACK 218 AUDIO
    TITLE "7:cjc115_2284"
    INDEX 01 04:01:41
  TRACK 219 AUDIO
    TITLE "0:"
    INDEX 01 04:03:48
  TRACK 220 AUDIO
    TITLE "6:cjc115_2285"
    INDEX 01 04:04:59
  TRACK 221 AUDIO
    TITLE "0:"
    INDEX 01 04:06:27
  TRACK 222 AUDIO
    TITLE "7:cjc115_2286"
    INDEX 01 04:06:38
  TRACK 223 AUDIO
    TITLE "0:"
    INDEX 01 04:07:69
  TRACK 224 AUDIO
    TITLE "6:cjc115_2287"
    INDEX 01 04:09:01
  TRACK 225 AUDIO
    TITLE "0:"
    INDEX 01 04:10:52
  TRACK 226 AUDIO
    TITLE "7:cjc115_2288"
    INDEX 01 04:10:58
  TRACK 227 AUDIO
    TITLE "0:"
    INDEX 01 04:12:12
